<svg  viewBox="0 0 24 24"  xmlns="http://www.w3.org/2000/svg">
<path d="M12.002 9C11.2063 9 10.4432 9.31607 9.88063 9.87868C9.31802 10.4413 9.00195 11.2044 9.00195 12C9.00195 12.7956 9.31802 13.5587 9.88063 14.1213C10.4432 14.6839 11.2063 15 12.002 15C12.7976 15 13.5607 14.6839 14.1233 14.1213C14.6859 13.5587 15.002 12.7956 15.002 12C15.002 11.2044 14.6859 10.4413 14.1233 9.87868C13.5607 9.31607 12.7976 9 12.002 9ZM12.002 7C13.328 7 14.5998 7.52678 15.5375 8.46447C16.4752 9.40215 17.002 10.6739 17.002 12C17.002 13.3261 16.4752 14.5979 15.5375 15.5355C14.5998 16.4732 13.328 17 12.002 17C10.6759 17 9.4041 16.4732 8.46642 15.5355C7.52874 14.5979 7.00195 13.3261 7.00195 12C7.00195 10.6739 7.52874 9.40215 8.46642 8.46447C9.4041 7.52678 10.6759 7 12.002 7ZM18.502 6.75C18.502 7.08152 18.3703 7.39946 18.1358 7.63388C17.9014 7.8683 17.5835 8 17.252 8C16.9204 8 16.6025 7.8683 16.3681 7.63388C16.1336 7.39946 16.002 7.08152 16.002 6.75C16.002 6.41848 16.1336 6.10054 16.3681 5.86612C16.6025 5.6317 16.9204 5.5 17.252 5.5C17.5835 5.5 17.9014 5.6317 18.1358 5.86612C18.3703 6.10054 18.502 6.41848 18.502 6.75ZM12.002 4C9.52795 4 9.12395 4.007 7.97295 4.058C7.18895 4.095 6.66295 4.2 6.17495 4.39C5.76657 4.53994 5.39737 4.78026 5.09495 5.093C4.78196 5.3954 4.54131 5.76458 4.39095 6.173C4.20095 6.663 4.09595 7.188 4.05995 7.971C4.00795 9.075 4.00095 9.461 4.00095 12C4.00095 14.475 4.00795 14.878 4.05895 16.029C4.09595 16.812 4.20095 17.339 4.38995 17.826C4.55995 18.261 4.75995 18.574 5.09195 18.906C5.42895 19.242 5.74195 19.443 6.17195 19.609C6.66595 19.8 7.19195 19.906 7.97195 19.942C9.07595 19.994 9.46195 20 12.001 20C14.476 20 14.879 19.993 16.03 19.942C16.812 19.905 17.338 19.8 17.827 19.611C18.235 19.4603 18.604 19.2201 18.907 18.908C19.244 18.572 19.445 18.259 19.611 17.828C19.801 17.336 19.907 16.81 19.943 16.028C19.995 14.925 20.001 14.538 20.001 12C20.001 9.526 19.994 9.122 19.943 7.971C19.906 7.189 19.8 6.661 19.611 6.173C19.4602 5.76502 19.22 5.39598 18.908 5.093C18.6057 4.77985 18.2365 4.53917 17.828 4.389C17.338 4.199 16.812 4.094 16.03 4.058C14.927 4.006 14.542 4 12.002 4ZM12.002 2C14.719 2 15.058 2.01 16.125 2.06C17.189 2.11 17.915 2.277 18.552 2.525C19.212 2.779 19.768 3.123 20.324 3.678C20.8324 4.1779 21.2259 4.78259 21.477 5.45C21.724 6.087 21.892 6.813 21.942 7.878C21.989 8.944 22.002 9.283 22.002 12C22.002 14.717 21.992 15.056 21.942 16.122C21.892 17.187 21.724 17.912 21.477 18.55C21.2266 19.2178 20.833 19.8226 20.324 20.322C19.8239 20.8303 19.2193 21.2238 18.552 21.475C17.915 21.722 17.189 21.89 16.125 21.94C15.058 21.987 14.719 22 12.002 22C9.28495 22 8.94595 21.99 7.87895 21.94C6.81495 21.89 6.08995 21.722 5.45195 21.475C4.78428 21.2245 4.17948 20.8309 3.67995 20.322C3.17138 19.8222 2.77791 19.2175 2.52695 18.55C2.27895 17.913 2.11195 17.187 2.06195 16.122C2.01395 15.056 2.00195 14.717 2.00195 12C2.00195 9.283 2.01195 8.944 2.06195 7.878C2.11195 6.812 2.27895 6.088 2.52695 5.45C2.77719 4.78218 3.17076 4.17732 3.67995 3.678C4.17962 3.16923 4.78438 2.77573 5.45195 2.525C6.08895 2.277 6.81395 2.11 7.87895 2.06C8.94595 2.013 9.28495 2 12.002 2Z" />
</svg>