<svg viewBox="0 0 24 24" fill="none" xmlns="http://www.w3.org/2000/svg">
<path fill-rule="evenodd" clip-rule="evenodd" d="M18.4839 19.7902V19.7882L18.5019 19.7452L21.5009 4.62518V4.57718C21.5009 4.20018 21.3609 3.87118 21.0589 3.67418C20.7939 3.50118 20.4889 3.48918 20.2749 3.50518C20.0758 3.5232 19.8792 3.56345 19.6889 3.62518C19.6078 3.65133 19.5278 3.68069 19.4489 3.71318L19.4359 3.71818L2.71595 10.2772L2.71095 10.2792C2.66011 10.2965 2.61036 10.3169 2.56195 10.3402C2.44304 10.3936 2.32895 10.4572 2.22095 10.5302C2.00595 10.6782 1.59695 11.0262 1.66595 11.5782C1.72295 12.0362 2.03795 12.3262 2.25095 12.4772C2.37667 12.5653 2.51184 12.6391 2.65395 12.6972L2.68595 12.7112L2.69595 12.7142L2.70295 12.7172L5.62895 13.7022C5.61895 13.8852 5.63695 14.0722 5.68595 14.2572L7.15095 19.8162C7.23098 20.1192 7.40392 20.3895 7.64547 20.5892C7.88702 20.7889 8.18506 20.9079 8.49772 20.9296C8.81039 20.9512 9.12197 20.8743 9.38871 20.7098C9.65546 20.5453 9.86396 20.3013 9.98495 20.0122L12.2729 17.5662L16.2019 20.5782L16.2579 20.6022C16.6149 20.7582 16.9479 20.8072 17.2529 20.7662C17.5579 20.7242 17.7999 20.5962 17.9819 20.4512C18.1925 20.2805 18.3602 20.0631 18.4719 19.8162L18.4799 19.7992L18.4829 19.7932L18.4839 19.7902ZM7.13595 13.8752C7.11972 13.8135 7.12358 13.7483 7.14696 13.6889C7.17033 13.6296 7.21201 13.5792 7.26595 13.5452L17.1869 7.24518C17.1869 7.24518 17.7709 6.89018 17.7499 7.24518C17.7499 7.24518 17.8539 7.30718 17.5409 7.59818C17.2449 7.87518 10.4699 14.4162 9.78395 15.0782C9.7458 15.1152 9.71908 15.1624 9.70695 15.2142L8.60095 19.4342L7.13595 13.8742V13.8752Z" fill="inherit"/>
</svg>