<svg  viewBox="0 0 24 24" fill="none" xmlns="http://www.w3.org/2000/svg">
<path d="M12.002 2C17.525 2 22.002 6.477 22.002 12C22.002 17.523 17.525 22 12.002 22C10.2347 22.0029 8.49862 21.5352 6.97197 20.645L2.00597 22L3.35797 17.032C2.46706 15.5049 1.99901 13.768 2.00197 12C2.00197 6.477 6.47897 2 12.002 2ZM8.59397 7.3L8.39397 7.308C8.26449 7.31589 8.13795 7.3499 8.02197 7.408C7.91349 7.46943 7.81446 7.54622 7.72797 7.636C7.60797 7.749 7.53997 7.847 7.46697 7.942C7.09709 8.4229 6.89794 9.01331 6.90097 9.62C6.90297 10.11 7.03097 10.587 7.23097 11.033C7.63997 11.935 8.31297 12.89 9.20097 13.775C9.41497 13.988 9.62497 14.202 9.85097 14.401C10.9544 15.3725 12.2692 16.073 13.691 16.447L14.259 16.534C14.444 16.544 14.629 16.53 14.815 16.521C15.1062 16.506 15.3906 16.4271 15.648 16.29C15.7789 16.2225 15.9067 16.1491 16.031 16.07C16.031 16.07 16.074 16.042 16.156 15.98C16.291 15.88 16.374 15.809 16.486 15.692C16.569 15.606 16.641 15.505 16.696 15.39C16.774 15.227 16.852 14.916 16.884 14.657C16.908 14.459 16.901 14.351 16.898 14.284C16.894 14.177 16.805 14.066 16.708 14.019L16.126 13.758C16.126 13.758 15.256 13.379 14.724 13.137C14.6683 13.1127 14.6086 13.0988 14.548 13.096C14.4795 13.089 14.4104 13.0967 14.3452 13.1186C14.28 13.1405 14.2203 13.1761 14.17 13.223C14.165 13.221 14.098 13.278 13.375 14.154C13.3335 14.2098 13.2763 14.2519 13.2108 14.2751C13.1452 14.2982 13.0743 14.3013 13.007 14.284C12.9418 14.2665 12.878 14.2445 12.816 14.218C12.692 14.166 12.649 14.146 12.564 14.11C11.99 13.8595 11.4587 13.5211 10.989 13.107C10.863 12.997 10.746 12.877 10.626 12.761C10.2326 12.3842 9.88969 11.958 9.60597 11.493L9.54697 11.398C9.50459 11.3342 9.47033 11.2653 9.44497 11.193C9.40697 11.046 9.50597 10.928 9.50597 10.928C9.50597 10.928 9.74897 10.662 9.86197 10.518C9.97197 10.378 10.065 10.242 10.125 10.145C10.243 9.955 10.28 9.76 10.218 9.609C9.93797 8.925 9.64797 8.244 9.34997 7.568C9.29097 7.434 9.11597 7.338 8.95697 7.319C8.90297 7.313 8.84897 7.307 8.79497 7.303C8.66067 7.29633 8.5261 7.29766 8.39197 7.307L8.59297 7.299L8.59397 7.3Z" fill="inherit"/>
</svg>